<svg xmlns="http://www.w3.org/2000/svg" viewBox="0 0 427.74 486.85">
<defs><style>.cls-2{fill:#fff;}</style>
</defs><g id="Layer_2" data-name="Layer 2">
<g id="Layer_1-2" data-name="Layer 1">
<path class="cls-1" d="M215.31,63.17Q160.35,13.79,80,2.32,40.35-3.33,4.77,4.77-3.31,40.35,2.32,80,13.8,160.35,63.17,215.31t109,48.8Q209.59,260.26,235,235q25.2-25.44,29.09-62.86Q270.26,112.55,215.31,63.17Z"/><path class="cls-2" d="M78,83.53s137.22,71.15,109.78,154c-11.18,7.63-11.18,2.55-11.18,2.55S211.18,173.49,78,83.53Z"/><path class="cls-2" d="M194.65,235.21q-26.49-25.11-30.56-62.07-6.47-58.86,51.26-107.62c.5-.42,1-.81,1.52-1.22-1.18-1-2.37-1.94-3.57-2.9q-3.53,2.76-7,5.66-57.74,48.75-51.27,107.61,4.06,37,30.57,62.08a105,105,0,0,0,25.14,17.33c2.06-.93,4.1-1.9,6.08-3A105.47,105.47,0,0,1,194.65,235.21Z"/><path class="cls-1" d="M364.57,215.31Q414,160.35,425.42,80,431.08,40.35,423,4.77q-35.58-8.08-75.21-2.45Q267.39,13.8,212.43,63.17t-48.8,109q3.85,37.43,29.09,62.86,25.44,25.2,62.87,29.09Q315.19,270.26,364.57,215.31Z"/><path class="cls-2" d="M342.58,70.34s-137.23,71.15-109.78,154C244,232,244,226.87,244,226.87S209.42,160.29,342.58,70.34Z"/><path class="cls-1" d="M265.87,270.08q-56.46-22.14-110.61,1.75T74.9,345.39q-26.21,49.67,15.89,84.42T209.85,392l1.1,46.26q-61,58.33-114.89,43.31t-72.47-62.5Q5.07,371.6,41.46,314.92t102-83.21q65.55-26.52,134.07.22T384.27,313.6q38.26,54.93,20.5,106.23t-77,64.57q-59.19,13.28-117.3-45.49l-.44-46.27q70.82,76.31,121.14,43.53t20.72-88.36Q322.33,292.22,265.87,270.08Z"/></g></g></svg>