<svg xmlns="http://www.w3.org/2000/svg" viewBox="0 0 427.74 486.85"><g id="Layer_2" data-name="Layer 2"><g id="Layer_1-2" data-name="Layer 1"><path class="cls-1" d="M176.62,240.07a38.4,38.4,0,0,0,2.93-9.58q-20.9-23.34-24.48-55.82a104.58,104.58,0,0,1-.14-21.94c-15.42-20.59-39.57-44-76.91-69.2,0,0,45.14,23.41,78.46,59q8.28-40.35,49.86-75.47,3.43-2.9,7-5.66Q158.88,13.6,80,2.32,40.35-3.33,4.77,4.77-3.31,40.35,2.32,80,13.8,160.35,63.17,215.31t109,48.8a106.6,106.6,0,0,0,37.39-10.66A105,105,0,0,1,187.05,238C176.62,244.91,176.62,240.07,176.62,240.07Z"/><path class="cls-1" d="M423,4.77q-35.58-8.08-75.21-2.45Q267.39,13.8,212.43,63.17t-48.8,109q3.87,37.43,29.09,62.86,25.44,25.2,62.87,29.09,59.6,6.15,109-48.8T425.42,80Q431.08,40.35,423,4.77ZM244,226.87s0,5.08-11.18-2.54c-27.45-82.84,109.78-154,109.78-154C209.42,160.29,244,226.87,244,226.87Z"/><path class="cls-1" d="M265.87,270.08q-56.46-22.14-110.61,1.75T74.9,345.39q-26.21,49.67,15.89,84.42T209.85,392l1.1,46.26q-61,58.33-114.89,43.31t-72.47-62.5Q5.07,371.6,41.46,314.92t102-83.21q65.55-26.52,134.07.22T384.27,313.6q38.26,54.93,20.5,106.23t-77,64.57q-59.19,13.28-117.3-45.49l-.44-46.27q70.82,76.31,121.14,43.53t20.72-88.36Q322.33,292.22,265.87,270.08Z"/></g></g></svg>