<svg xmlns="http://www.w3.org/2000/svg" viewBox="0 0 1325.26 355.69"><g id="Layer_2" data-name="Layer 2"><g id="Layer_1-2" data-name="Layer 1"><path class="cls-1" d="M129,188.74a28,28,0,0,0,2.14-7q-15.27-17-17.89-40.77a76.76,76.76,0,0,1-.1-16c-11.27-15-28.91-32.13-56.19-50.56,0,0,33,17.1,57.32,43.1Q120.38,88,150.75,62.34c1.67-1.41,3.37-2.78,5.08-4.13Q116.08,23.29,58.44,15.05a150.27,150.27,0,0,0-55,1.79,150.44,150.44,0,0,0-1.78,55q8.39,58.71,44.45,98.87t79.63,35.65a77.92,77.92,0,0,0,27.32-7.79,77.14,77.14,0,0,1-16.44-11.27C129,192.28,129,188.74,129,188.74Z" transform="translate(0 -13.35)"/><path class="cls-1" d="M309,16.84a150.22,150.22,0,0,0-54.95-1.79q-58.71,8.39-98.87,44.46t-35.65,79.62q2.82,27.35,21.25,45.92,18.58,18.42,45.93,21.26,43.54,4.5,79.62-35.65t44.46-98.87Q314.94,42.82,309,16.84ZM178.25,179.1s0,3.72-8.17-1.85C150,116.72,250.28,64.74,250.28,64.74,153,130.46,178.25,179.1,178.25,179.1Z" transform="translate(0 -13.35)"/><path class="cls-1" d="M194.24,210.67Q153,194.49,113.43,212T54.72,265.69Q35.58,302,66.33,327.37t87-27.63l.8,33.8q-44.53,42.6-83.94,31.63T17.24,319.52Q3.7,284.84,30.29,243.43t74.49-60.79q47.9-19.38,97.95.16t78,59.67q27.94,40.13,15,77.61T239.5,367.25q-43.26,9.69-85.7-33.23l-.32-33.8Q205.22,356,242,332t15.14-64.55Q235.49,226.84,194.24,210.67Z" transform="translate(0 -13.35)"/><path class="cls-1" d="M422.47,335.2V51.6h70.4V335.2Zm56.8,0V282h59.6q16,0,26-9.6t10-24.4q0-10.4-4.6-17.8a33.7,33.7,0,0,0-12.6-11.8q-8-4.4-19.6-4.4h-58.8V162.8h54.4q14.4,0,23.4-7.2t9-21.6q0-14.79-9-22t-23-7.2h-54.8V51.6h72q26.81,0,46,10t29.6,26.8q10.39,16.8,10.4,38,0,28-19.4,46.8t-56.2,23.6V172.4q40.4,4.8,62.4,26.2t22,53.8a78.08,78.08,0,0,1-12,42.6q-12,19-33.8,29.6t-51.4,10.6Z" transform="translate(0 -13.35)"/><path class="cls-1" d="M712.47,117.2q-16,0-26.4-11a37.28,37.28,0,0,1-10.4-26.6q0-15.6,10.4-26.4t26.4-10.8q15.6,0,26,10.8a36.64,36.64,0,0,1,10.4,26.4,37.33,37.33,0,0,1-10.4,26.6Q728.06,117.21,712.47,117.2Zm-35.6,218V139.6h70V335.2Z" transform="translate(0 -13.35)"/><path class="cls-1" d="M787.27,335.2V139.6h70V335.2Zm126.8,0V224.4q0-13.2-7.8-20.8t-20.2-7.6a32.36,32.36,0,0,0-15,3.4,23.83,23.83,0,0,0-10.2,10,31.68,31.68,0,0,0-3.6,15.4L830.47,212q0-23.59,10.2-40.8a67.7,67.7,0,0,1,28.6-26.4q18.39-9.2,41.2-9.2,21.19,0,37.8,9.8a72.71,72.71,0,0,1,26.2,26.2,71.5,71.5,0,0,1,9.6,36.8V335.2Z" transform="translate(0 -13.35)"/><path class="cls-1" d="M1020.47,335.2V43.6h70V335.2Zm126.8,0V224.4q0-13.2-7.8-20.8t-20.2-7.6a32.36,32.36,0,0,0-15,3.4,23.83,23.83,0,0,0-10.2,10,31.68,31.68,0,0,0-3.6,15.4l-26.8-12.8q0-23.59,9.6-40.8a65.29,65.29,0,0,1,27-26.4q17.4-9.2,40.2-9.2,23.19,0,40.6,9.4a66.71,66.71,0,0,1,26.8,25.8q9.39,16.41,9.4,37.6V335.2Z" transform="translate(0 -13.35)"/><path class="cls-1" d="M1288.86,117.2q-16,0-26.4-11a37.33,37.33,0,0,1-10.4-26.6,36.64,36.64,0,0,1,10.4-26.4q10.39-10.8,26.4-10.8,15.6,0,26,10.8a36.64,36.64,0,0,1,10.4,26.4,37.33,37.33,0,0,1-10.4,26.6Q1304.47,117.21,1288.86,117.2Zm-35.6,218V139.6h70V335.2Z" transform="translate(0 -13.35)"/></g></g></svg>